HIERARCHY
ROOT SpineBase
{
  OFFSET 0.000000 0.000000 0.000000
  CHANNELS 6 Xposition Yposition Zposition Zrotation Xrotation Yrotation
  JOINT SpineMid
  {
    OFFSET 0.000000 36.224202 0.000000
    CHANNELS 3 Zrotation Xrotation Yrotation
    JOINT SpineShoulder
    {
      OFFSET 0.054665 26.929542 -0.724579
      CHANNELS 3 Zrotation Xrotation Yrotation
      JOINT Neck
      {
        OFFSET 0.089702 8.948981 -0.604676
        CHANNELS 3 Zrotation Xrotation Yrotation
        JOINT Head
        {
          OFFSET 1.698476 11.072072 4.505724
          CHANNELS 3 Zrotation Xrotation Yrotation
          End Site
          {
            OFFSET 0 0 0
          }
        }
      }
      JOINT ShoulderLeft
      {
        OFFSET -7.649041 -4.700677 -4.146304
        CHANNELS 3 Zrotation Xrotation Yrotation
        JOINT ElbowLeft
        {
          OFFSET -6.032889 -21.528857 7.628935
          CHANNELS 3 Zrotation Xrotation Yrotation
          JOINT WristLeft
          {
            OFFSET -2.002658 -25.939854 4.408248
            CHANNELS 3 Zrotation Xrotation Yrotation
            JOINT HandLeft
            {
              OFFSET -0.133647 -5.815903 0.548993
              CHANNELS 3 Zrotation Xrotation Yrotation
              JOINT HandTipLeft
              {
                OFFSET 0.535609 -5.862697 -2.869635
                CHANNELS 3 Zrotation Xrotation Yrotation
                End Site
                {
                  OFFSET 0 0 0
                }
              }
              JOINT ThumbLeft
              {
                OFFSET -0.587982 -0.860236 -2.093112
                CHANNELS 3 Zrotation Xrotation Yrotation
                End Site
                {
                  OFFSET 0 0 0
                }
              }
            }
          }
        }
      }
      JOINT ShoulderRight
      {
        OFFSET 10.888313 -5.582233 -13.276833
        CHANNELS 3 Zrotation Xrotation Yrotation
        JOINT ElbowRight
        {
          OFFSET 3.942659 -25.929883 -2.522260
          CHANNELS 3 Zrotation Xrotation Yrotation
          JOINT WristRight
          {
            OFFSET 2.096935 -21.947226 -0.292376
            CHANNELS 3 Zrotation Xrotation Yrotation
            JOINT HandRight
            {
              OFFSET 0.625668 -5.110279 1.009350
              CHANNELS 3 Zrotation Xrotation Yrotation
              JOINT HandTipRight
              {
                OFFSET 0.011151 -5.347753 -1.134854
                CHANNELS 3 Zrotation Xrotation Yrotation
                End Site
                {
                  OFFSET 0 0 0
                }
              }
              JOINT ThumbRight
              {
                OFFSET -2.051994 2.162130 -0.417915
                CHANNELS 3 Zrotation Xrotation Yrotation
                End Site
                {
                  OFFSET 0 0 0
                }
              }
            }
          }
        }
      }
    }
  }
  JOINT HipLeft
  {
    OFFSET -5.586465 0.803798 -0.978350
    CHANNELS 3 Zrotation Xrotation Yrotation
    JOINT KneeLeft
    {
      OFFSET 1.485755 -33.819612 -1.089922
      CHANNELS 3 Zrotation Xrotation Yrotation
      JOINT AnkleLeft
      {
        OFFSET -3.044823 -34.918683 2.525123
        CHANNELS 3 Zrotation Xrotation Yrotation
        JOINT FootLeft
        {
          OFFSET 9.099977 -3.176504 -9.051104
          CHANNELS 3 Zrotation Xrotation Yrotation
          End Site
          {
            OFFSET 0 0 0
          }
        }
      }
    }
  }
  JOINT HipRight
  {
    OFFSET 6.271306 2.471873 -6.454171
    CHANNELS 3 Zrotation Xrotation Yrotation
    JOINT KneeRight
    {
      OFFSET 0.247656 -34.633234 -3.969741
      CHANNELS 3 Zrotation Xrotation Yrotation
      JOINT AnkleRight
      {
        OFFSET -3.014639 -35.460626 -2.017576
        CHANNELS 3 Zrotation Xrotation Yrotation
        JOINT FootRight
        {
          OFFSET -2.634579 -4.405295 2.639945
          CHANNELS 3 Zrotation Xrotation Yrotation
          End Site
          {
            OFFSET 0 0 0
          }
        }
      }
    }
  }
}
MOTION
Frames: 7
Frame Time: 0.033333
-26.926230 73.628753 258.307978 -0.355909 -1.586805 20.450832 0.038018 -0.276677 -20.460557 0.532985 0.294357 0.029280 2.749436 -0.549651 -0.994930 0.000000 0.000000 0.000000 21.202219 14.368903 1.114220 33.515979 11.872237 1.645113 -14.452125 -8.307081 -3.958168 -17.219960 -29.208235 -13.552890 0.000000 0.000000 0.000000 0.000000 0.000000 0.000000 1.275571 -3.944385 -0.990029 7.390217 -3.411285 -0.067802 -33.566821 9.249787 0.862036 33.140041 -9.952861 3.710375 0.000000 0.000000 0.000000 0.000000 0.000000 0.000000 -1.339231 2.205775 -20.319588 4.684891 2.701909 -0.202440 -6.996799 -7.465284 -0.824256 0.000000 0.000000 0.000000 2.279436 3.582684 -20.568045 -0.641233 -1.143538 -0.088094 18.397666 43.920735 -36.364436 0.000000 0.000000 0.000000
-27.003752 73.645924 258.417731 -0.363392 -1.646635 20.063108 -0.031339 -0.292706 -20.074276 0.505631 0.284486 0.025796 3.359031 -0.814946 -1.146036 0.000000 0.000000 0.000000 13.378801 9.797953 1.215875 47.187285 18.848779 -1.088776 -16.896504 -10.303744 -4.181554 -21.283814 -27.977475 -14.262461 0.000000 0.000000 0.000000 0.000000 0.000000 0.000000 1.367364 -4.015606 -1.013671 6.985644 -3.206246 -0.051866 -34.886100 6.148969 -0.403833 36.925686 -4.924509 2.592819 0.000000 0.000000 0.000000 0.000000 0.000000 0.000000 -1.465211 2.234109 -19.925260 5.136765 2.921474 -0.209393 -6.225678 -6.622523 -0.964655 0.000000 0.000000 0.000000 2.512420 3.679822 -20.215498 -0.934360 -1.120322 -0.079577 26.219614 48.836952 -45.433231 0.000000 0.000000 0.000000
-27.140306 73.669629 258.564431 -0.436207 -1.748533 19.513081 -0.046078 -0.303688 -19.527900 0.486480 0.274626 0.022152 4.010363 -0.990864 -1.324870 0.000000 0.000000 0.000000 7.674502 6.500087 0.874773 58.567900 23.646579 -4.466153 -19.173156 -12.296961 -4.278262 -23.729423 -26.727245 -14.898734 0.000000 0.000000 0.000000 0.000000 0.000000 0.000000 1.482927 -4.162141 -1.051958 6.541982 -2.941587 -0.028537 -34.830275 1.834142 -2.070482 39.973405 2.200893 0.156584 0.000000 0.000000 0.000000 0.000000 0.000000 0.000000 -1.440611 2.251646 -19.375531 5.465182 3.171700 -0.220952 -5.014962 -5.410243 -0.998988 0.000000 0.000000 0.000000 2.919173 3.837271 -19.719691 -1.281803 -1.147537 -0.066850 21.814569 37.452398 -26.451964 0.000000 0.000000 0.000000
-27.190466 73.709615 258.686417 -0.422792 -1.817735 18.912327 -0.087706 -0.312067 -18.927288 0.445644 0.240635 0.019939 4.603832 -1.175097 -1.496277 0.000000 0.000000 0.000000 4.373445 4.673989 0.520756 66.090477 26.212242 -7.093838 -21.205061 -13.779847 -4.461819 -23.913608 -27.124419 -15.299218 0.000000 0.000000 0.000000 0.000000 0.000000 0.000000 1.531596 -4.328716 -1.092596 6.406808 -2.636544 -0.016996 -38.700948 -1.080528 -3.734931 43.717461 7.938401 -0.886952 0.000000 0.000000 0.000000 0.000000 0.000000 0.000000 -1.599897 2.266536 -18.767959 5.777545 3.392599 -0.235489 -3.936056 -4.316796 -0.912151 0.000000 0.000000 0.000000 3.041851 4.022237 -19.142756 -1.426560 -1.141038 -0.069947 22.737736 36.456841 -24.886505 0.000000 0.000000 0.000000
-27.294077 73.770044 258.867355 -0.460251 -1.922610 18.479454 -0.106472 -0.323221 -18.496610 0.418265 0.201776 0.017477 5.090390 -1.292503 -1.625623 0.000000 0.000000 0.000000 3.741469 4.469132 0.412032 68.484890 26.902550 -7.910227 -21.761454 -15.094579 -4.048825 -21.056291 -27.158338 -15.935144 0.000000 0.000000 0.000000 0.000000 0.000000 0.000000 1.523136 -4.396227 -1.119665 6.144180 -2.592403 -0.012501 -34.954020 -0.456443 -2.992990 39.803463 6.470684 -0.627543 0.000000 0.000000 0.000000 0.000000 0.000000 0.000000 -1.565211 2.399926 -18.328514 6.022500 3.522285 -0.247134 -3.884505 -5.598363 -5.122749 0.000000 0.000000 0.000000 3.319726 4.249685 -18.749975 -1.635522 -1.214698 -0.066773 20.557716 28.136177 -14.494193 0.000000 0.000000 0.000000
-27.396288 73.848937 259.075452 -0.499743 -2.046330 18.174772 -0.115858 -0.330459 -18.194192 0.393324 0.163627 0.015421 5.485522 -1.342972 -1.733354 0.000000 0.000000 0.000000 6.411997 6.185962 0.658961 64.026178 25.157825 -5.864256 -21.405063 -15.686929 -3.532845 -20.167691 -29.530211 -15.668958 0.000000 0.000000 0.000000 0.000000 0.000000 0.000000 1.533629 -4.550573 -1.163688 5.867384 -2.970307 -0.015475 -31.311871 2.582959 -1.361487 34.418164 4.912665 0.471411 0.000000 0.000000 0.000000 0.000000 0.000000 0.000000 -1.457417 2.654721 -18.012911 6.155544 3.439928 -0.245346 -4.727877 -6.285797 -5.061087 0.000000 0.000000 0.000000 3.625877 4.511053 -18.489829 -1.857504 -1.344943 -0.061603 24.722403 34.451286 -21.548176 0.000000 0.000000 0.000000
-27.512446 73.927600 259.310477 -0.558741 -2.199541 18.051524 -0.116937 -0.327078 -18.074204 0.378161 0.142168 0.013200 5.758543 -1.345950 -1.797537 0.000000 0.000000 0.000000 6.199990 6.342783 0.562991 64.366530 25.108685 -5.681810 -21.566369 -16.358259 -3.234972 -19.794452 -30.171498 -15.690934 0.000000 0.000000 0.000000 0.000000 0.000000 0.000000 1.612795 -4.719510 -1.214771 5.613701 -3.509942 -0.018030 -28.555614 7.180965 0.536412 28.458880 -1.022907 2.179780 0.000000 0.000000 0.000000 0.000000 0.000000 0.000000 -1.305475 2.979051 -17.877008 6.313096 3.367144 -0.246604 -6.224670 -6.230777 -0.342772 0.000000 0.000000 0.000000 3.973745 4.780208 -18.415646 -2.066603 -1.460880 -0.058015 25.229163 28.972797 -13.713744 0.000000 0.000000 0.000000
